{"accessors" : [{"bufferView" : 0, "byteOffset" : 0, "componentType" : 5123, "count" : 5307, "type" : "SCALAR", "max" : [5306], "min" : [0]}, {"bufferView" : 1, "byteOffset" : 0, "componentType" : 5126, "count" : 5307, "type" : "VEC3", "max" : [0.9999997019767761, 1, 3.5098118782043457], "min" : [-0.9999990463256836, -0.9999993443489075, 0], "name" : "POSITION"}, {"bufferView" : 1, "byteOffset" : 12, "componentType" : 5126, "count" : 5307, "type" : "VEC3", "max" : [1.0000044107437134, 1.0000044107437134, 1.0000044107437134], "min" : [-1.0000042915344238, -1.0000044107437134, -1.0000044107437134], "name" : "NORMAL"}, {"bufferView" : 1, "byteOffset" : 24, "componentType" : 5126, "count" : 5307, "type" : "VEC2", "max" : [0.9997929930686951, -0.00020691489044111222], "min" : [0.006140708923339844, -0.9886734485626221], "name" : "TEXCOORD_0"}], "asset" : {"generator" : "Aspose.3D 23.4.0", "version" : "2.0"}, "buffers" : [{"uri" : "data:application/octet-stream;base64,", "byteLength" : 180448}], "bufferViews" : [{"buffer" : 0, "byteOffset" : 0, "byteLength" : 10616, "target" : 34963}, {"buffer" : 0, "byteOffset" : 10620, "byteLength" : 169824, "byteStride" : 32, "target" : 34962}], "images" : [{"uri" : "M:\\Blender Projects\\SketchFab Models\\Explosives\\Little Explosives\\LE_Bomb\\LE_Bomb_n.png"}, {"uri" : "M:\\Blender Projects\\SketchFab Models\\Explosives\\Little Explosives\\LE_Bomb\\LE_Bomb_t.png"}], "materials" : [{"name" : "bomb", "pbrMetallicRoughness" : {"baseColorFactor" : [0.800000011920929, 0.800000011920929, 0.800000011920929, 1], "baseColorTexture" : {"index" : 1, "texCoord" : 0}, "metallicFactor" : 0, "roughnessFactor" : 0}, "normalTexture" : {"index" : 0, "texCoord" : 0, "scale" : 1}, "emissiveFactor" : [0, 0, 0], "alphaMode" : "OPAQUE", "doubleSided" : false}], "meshes" : [{"primitives" : [{"attributes" : {"POSITION" : 1, "NORMAL" : 2, "TEXCOORD_0" : 3}, "indices" : 0, "material" : 0, "mode" : 4}], "name" : "Sphere.001"}], "nodes" : [{"matrix" : [100, 0, 0, 0, 0, -1.6292067955264296E-05, -99.99999999999866, 0, 0, 99.99999999999866, -1.6292067955264296E-05, 0, 0, 0, 0, 1], "mesh" : 0, "name" : "LE_Bomb"}], "samplers" : [{"magFilter" : 9729, "minFilter" : 9729, "wrapS" : 10497, "wrapT" : 10497}, {"magFilter" : 9729, "minFilter" : 9729, "wrapS" : 10497, "wrapT" : 10497}], "scene" : 0, "scenes" : [{"nodes" : [0]}], "textures" : [{"sampler" : 0, "source" : 0, "name" : "normalmap_texture"}, {"sampler" : 1, "source" : 1, "name" : "base_color_texture"}]}